<svg
   xmlns="http://www.w3.org/2000/svg"
   viewBox="0 0 24 24"
   fill="#0891b2">
   <circle
     style="fill:#0891b2;stroke-width:1"
     id="path2"
     cx="12"
     cy="12"
     r="12" />
   <path
     d="m 11.33,6.3 a 0.6,0.6 0 0 1 1.2,0 v 4.383467 c 0.275734,0.0864 0.544,0.203733 0.8,0.351466 V 7.1 a 0.6,0.6 0 0 1 1.2,0 v 5.833067 a 2.4026667,2.4026667 0 0 0 -1.733333,1.2656 A 4.7802666,4.7802666 0 0 1 14.93,13.7 a 0.4,0.4 0 0 0 0.4,-0.4 v -1.208533 a 1.7962667,1.7962667 0 0 1 0.526933,-1.264 0.6,0.6 0 0 1 0.848534,0.848 A 0.59626666,0.59626666 0 0 0 16.53,12.0968 V 13.7 h -0.0027 a 3.2,3.2 0 0 1 -0.9344,2.137067 l -0.925866,0.925866 A 3.2,3.2 0 0 1 12.404667,17.7 H 11.33 a 4,4 0 0 1 -4,-4 v -5 a 0.6,0.6 0 0 1 1.2,0 v 2.943467 C 8.7753333,11.4024 9.0446666,11.199733 9.33,11.034933 V 7.1 a 0.6,0.6 0 0 1 1.2,0 v 3.480533 c 0.264,-0.05333 0.531734,-0.08053 0.8,-0.08053 z"
     id="path1"
     style="fill:#ffffff;stroke-width:1" />
</svg>
