<svg
   xmlns="http://www.w3.org/2000/svg"
   viewBox="0 0 24 24"
   fill="#dc2626">
   <path
     style="stroke-width:1"
     d="M 12.000001,4.5e-7 C 5.372308,4.5e-7 4.5e-7,5.3723081 4.5e-7,12.000001 4.5e-7,18.627693 5.372308,24 12.000001,24 18.627693,24 24,18.627693 24,12.000001 24,5.3723081 18.627693,4.5e-7 12.000001,4.5e-7 Z"
     id="path1" />
   <path
     style="stroke-width:1;fill:#ffffff"
     d="m 9.8830776,8.5784616 a 0.9230769,0.9230769 0 1 0 -1.304616,1.304616 l 2.1169234,2.1169234 -2.1169234,2.116923 a 0.9230769,0.9230769 0 1 0 1.304616,1.304615 l 2.1169234,-2.116923 2.116923,2.116923 a 0.9230769,0.9230769 0 1 0 1.304615,-1.304615 l -2.116923,-2.116923 2.116923,-2.1169234 a 0.9230769,0.9230769 0 1 0 -1.304615,-1.304616 l -2.116923,2.1169234 z"
     id="path2" />
</svg>
