<svg
   xmlns="http://www.w3.org/2000/svg"
   viewBox="0 0 24 24"
   fill="currentColor">
   <circle
     style="display:inline;fill:#000000;stroke-width:0.977619"
     id="path2"
     cx="12"
     cy="12"
     r="12" />
   <path
     id="path1"
     style="fill:#ffffff;stroke-width:0.615432"
     d="M 10.103516,5.4921875 C 9.3161995,5.6925077 8.8360683,6.5027165 8.2285156,7.0019531 7.4143199,7.9126981 6.4565646,8.6933372 5.6738281,9.6230469 c -0.4202759,0.6082461 0.091715,1.2077181 0.531596,1.6231851 1.1189126,1.115171 2.2263214,2.246044 3.3492634,3.326034 0.6021065,0.528227 1.6746585,0.04705 1.5429685,-0.78125 -0.146175,-0.900452 -1.1021905,-1.307467 -1.6135685,-1.983518 -0.6974558,-0.549712 -0.7842233,-0.845209 0.2010612,-0.694435 1.6969693,0.03026 3.4313533,-0.152041 5.1018173,0.174071 1.760366,0.585933 2.386117,3.116642 1.033373,4.418764 -0.944054,0.996037 -2.341122,0.905224 -3.609401,0.854649 -0.777947,-0.107134 -1.444642,0.736107 -1.042969,1.441406 0.542131,0.77692 2.449671,0.49199 2.422122,0.502451 1.925587,0.03725 3.853993,-1.084993 4.556393,-2.916513 0.952402,-2.23508 -0.169968,-5.106238 -2.454625,-5.9963871 C 14.063783,8.8763011 11.9704,9.1663545 10.532812,9.1816406 10.503774,9.1537984 9.0619544,9.2796527 8.8497008,9.1106245 9.5794816,8.3299864 10.451763,7.6475735 11.060547,6.7734375 11.304185,6.1615591 10.753875,5.4426183 10.103516,5.4921875 Z" />
</svg>