<svg xmlns="http://www.w3.org/2000/svg" viewBox="0 0 21 18" fill="none" >
  <g clip-path="url(#clip0_1_145)">
    <path d="M16.84 9.46268C16.84 11.0027 15.57 12.2527 14.03 12.2427L7.22 12.2127V10.0227L0.5 13.8527L7.19 17.7527V15.5627L14.01 15.5927C15.65 15.5927 17.2 14.9727 18.37 13.8127C19.54 12.6527 20.18 11.1227 20.19 9.47268C20.19 8.79268 20.09 8.12268 19.87 7.49268L16.82 9.23268C16.82 9.30268 16.82 9.38268 16.82 9.45268L16.84 9.46268Z" fill="#adadad"/>
    <path d="M3.36 9.04268C3.36 7.50268 4.63 6.25268 6.17 6.26268L12.98 6.29268V8.48268L19.7 4.64268L13 0.742683V2.93268L6.18 2.90268C4.54 2.90268 2.99 3.52268 1.82 4.68268C0.65 5.84268 0 7.38268 0 9.02268C0 9.70268 0.1 10.3727 0.32 11.0027L3.37 9.26268C3.37 9.19268 3.37 9.11268 3.37 9.04268H3.36Z" fill="#adadad"/>
  </g>
  <defs>
    <clipPath id="clip0_1_145">
      <rect width="20.2" height="17.02" fill="white" transform="translate(0 0.742683)"/>
    </clipPath>
  </defs>
</svg>