<svg
   xmlns="http://www.w3.org/2000/svg"
   viewBox="0 0 24 24"
   fill="#0284c7">
<circle
     style="fill:#0284c7;stroke-width:1"
     id="path3"
     cx="12"
     cy="12"
     r="12" />
<path
     d="M 7.7140907,7.2855 A 1.7143637,1.7143637 0 0 0 5.999727,8.9998637 v 0.428591 H 18.000273 V 8.9998637 A 1.7143637,1.7143637 0 0 0 16.285909,7.2855 Z"
     id="path1"
     style="stroke-width:1;fill:#ffffff" />
<path
     fill-rule="evenodd"
     d="M 18.000273,10.714228 H 5.999727 v 4.285909 A 1.7143637,1.7143637 0 0 0 7.7140907,16.7145 h 8.5718183 a 1.7143637,1.7143637 0 0 0 1.714364,-1.714363 z M 7.7140907,12.857182 a 0.42859093,0.42859093 0 0 1 0.4285909,-0.428591 h 3.4287274 a 0.42859093,0.42859093 0 0 1 0,0.857182 H 8.1426816 A 0.42859093,0.42859093 0 0 1 7.7140907,12.857182 Z m 0.4285909,1.285773 a 0.428591,0.428591 0 0 0 0,0.857182 h 1.7143637 a 0.428591,0.428591 0 0 0 0,-0.857182 z"
     clip-rule="evenodd"
     id="path2"
     style="stroke-width:1;fill:#ffffff" />
</svg>
