<svg
   xmlns="http://www.w3.org/2000/svg"
   viewBox="0 0 24 24"
   fill="currentColor">
   <path
     fill-rule="evenodd"
     d="M 4.5e-7,12.000001 C 4.5e-7,5.3723081 5.372308,4.5e-7 12.000001,4.5e-7 18.627693,4.5e-7 24,5.3723081 24,12.000001 24,18.627693 18.627693,24 12.000001,24 5.372308,24 4.5e-7,18.627693 4.5e-7,12.000001 Z M 16.443077,9.7673846 a 0.9230769,0.9230769 0 1 0 -1.501538,-1.07323 L 10.95877,14.269539 8.9600006,12.27077 a 0.9230769,0.9230769 0 0 0 -1.3046157,1.304615 l 2.7692311,2.769231 a 0.9230769,0.9230769 0 0 0 1.403077,-0.115692 z"
     clip-rule="evenodd"
     id="path1"
     style="stroke-width:1" />
</svg>