<svg
   xmlns="http://www.w3.org/2000/svg"
   viewBox="0 0 24 24"
   fill="currentColor">
   <path
     fill-rule="evenodd"
     d="M 4.5e-7,12.000001 C 4.5e-7,5.3723081 5.372308,4.5e-7 12.000001,4.5e-7 18.627693,4.5e-7 24,5.3723081 24,12.000001 24,18.627693 18.627693,24 12.000001,24 5.372308,24 4.5e-7,18.627693 4.5e-7,12.000001 Z M 12.000001,7.3846157 a 0.9230769,0.9230769 0 0 1 0.923077,0.9230769 v 4.6153854 a 0.923077,0.923077 0 0 1 -1.846154,0 V 8.3076926 a 0.9230769,0.9230769 0 0 1 0.923077,-0.9230769 z m 0,10.1538463 a 0.923077,0.923077 0 1 0 0,-1.846154 0.923077,0.923077 0 0 0 0,1.846154 z"
     clip-rule="evenodd"
     id="path1"
     style="stroke-width:1" />
</svg>