<svg
   xmlns="http://www.w3.org/2000/svg"
   viewBox="0 0 24 24"
   fill="#0284c7">
  <circle
     style="fill:#0284c7;stroke-width:1"
     id="path2"
     cx="12"
     cy="12"
     r="12" />
  <path
     fill-rule="evenodd"
     d="m 12,6.0000013 c -1.097723,0 -2.1805894,0.063429 -3.245741,0.1868587 C 7.8988234,6.286289 7.2856755,7.0211525 7.2856755,7.8611594 v 9.7103656 a 0.42857495,0.42857495 0 0 0 0.5880048,0.397717 l 1.9834449,-0.793149 1.9840158,0.793149 a 0.42857495,0.42857495 0 0 0 0.317717,0 l 1.984017,-0.793149 1.983444,0.793149 a 0.42857495,0.42857495 0 0 0 0.588005,-0.397717 V 7.8611594 c 0,-0.8400069 -0.613148,-1.5748701 -1.468583,-1.6742994 A 28.145946,28.145946 0 0 0 12,6.0000013 Z M 11.44571,9.7314605 A 0.42857495,0.42857495 0 1 0 10.83999,9.1257413 L 9.5542655,10.411466 a 0.42857495,0.42857495 0 0 0 0,0.605719 L 10.83999,12.30291 a 0.42857495,0.42857495 0 1 0 0.60572,-0.605719 l -0.554291,-0.55429 h 1.751443 a 1.0714374,1.0714374 0 0 1 0,2.142874 H 12 a 0.42857495,0.42857495 0 0 0 0,0.85715 h 0.642862 a 1.9285873,1.9285873 0 1 0 0,-3.857174 h -1.750871 l 0.55429,-0.5542905 z"
     clip-rule="evenodd"
     id="path1"
     style="fill:#ffffff;stroke-width:1" />
</svg>
