<svg
   xmlns="http://www.w3.org/2000/svg"
   viewBox="0 0 24 24"
   fill="currentColor">
   <path
     fill-rule="evenodd"
     d="M 4.5e-7,12.000001 C 4.5e-7,5.3723081 5.372308,4.5e-7 12.000001,4.5e-7 18.627693,4.5e-7 24,5.3723081 24,12.000001 24,18.627693 18.627693,24 12.000001,24 5.372308,24 4.5e-7,18.627693 4.5e-7,12.000001 Z M 8.3076925,7.3846157 A 0.9230769,0.9230769 0 0 0 7.3846156,8.3076926 v 7.3846154 c 0,0.509539 0.4135389,0.923077 0.9230769,0.923077 h 0.923077 A 0.9230769,0.9230769 0 0 0 10.153847,15.692308 V 8.3076926 A 0.9230769,0.9230769 0 0 0 9.2307696,7.3846157 Z m 6.4615385,0 a 0.9230769,0.9230769 0 0 0 -0.923077,0.9230769 v 7.3846154 c 0,0.509539 0.413539,0.923077 0.923077,0.923077 h 0.923077 a 0.9230769,0.9230769 0 0 0 0.923077,-0.923077 V 8.3076926 A 0.9230769,0.9230769 0 0 0 15.692308,7.3846157 Z"
     clip-rule="evenodd"
     id="path1"
     style="stroke-width:1" />
</svg>